<!-- Generator: Adobe Illustrator 21.0.0, SVG Export Plug-In  -->
<svg version="1.1"
	 xmlns="http://www.w3.org/2000/svg" xmlns:xlink="http://www.w3.org/1999/xlink" xmlns:a="http://ns.adobe.com/AdobeSVGViewerExtensions/3.0/"
	 x="0px" y="0px" width="249.9px" height="65.7px" viewBox="0 0 249.9 65.7" style="enable-background:new 0 0 249.9 65.7;"
	 xml:space="preserve">
<style type="text/css">
	.st0{fill:url(#Path_1612_2_);}
	.st1{fill:url(#Path_1613_2_);}
	.st2{fill:url(#Path_1614_2_);}
	.st3{fill:url(#Path_1615_2_);}
	.st4{fill:url(#Path_1616_2_);}
	.st5{fill:#FF3600;}
	.st6{fill:url(#Path_1621_2_);}
	.st7{fill:url(#Path_1622_2_);}
	.st8{fill:url(#Path_1612_3_);}
	.st9{fill:url(#Path_1613_3_);}
	.st10{fill:url(#Path_1614_3_);}
	.st11{fill:url(#Path_1615_3_);}
	.st12{fill:url(#Path_1616_3_);}
	.st13{fill:url(#Path_1621_3_);}
	.st14{fill:url(#Path_1622_3_);}
</style>
<defs>
</defs>
<g id="Group_397_1_" transform="translate(365 12.019)">
	
		<linearGradient id="Path_1612_2_" gradientUnits="userSpaceOnUse" x1="3280.5642" y1="-4864.1948" x2="3280.5642" y2="-4863.2148" gradientTransform="matrix(6.8848 0 0 -49.4315 -22947.7324 -240399.2188)">
		<stop  offset="0" style="stop-color:#FF873F"/>
		<stop  offset="1" style="stop-color:#FF273F"/>
	</linearGradient>
	<path id="Path_1612_1_" class="st0" d="M-358.6-0.1c0-0.5,0.1-1,0.1-1.5c0.1-0.5,0.2-1,0.3-1.5c-0.1,0-0.1,0-0.1-0.1
		c-3.3-0.9-6,1.2-6.5,5.1c-0.1,0.4-0.1,0.9-0.1,1.3v35.2c0,4.7,2.9,7.5,6.6,6.4h0.1c-0.2-0.9-0.4-1.9-0.4-2.9
		C-358.6,27.9-358.6,13.9-358.6-0.1z"/>
	<g id="Group_395_1_" transform="translate(89.827 20.786)">
		
			<linearGradient id="Path_1613_2_" gradientUnits="userSpaceOnUse" x1="3557.8743" y1="-4996.2373" x2="3557.8743" y2="-4995.2573" gradientTransform="matrix(14.933 0 0 -24.6 -53489.1875 -122895.0078)">
			<stop  offset="0" style="stop-color:#00939F"/>
			<stop  offset="1" style="stop-color:#006CB5"/>
		</linearGradient>
		<path id="Path_1613_1_" class="st1" d="M-357.8,12.4h-9v-24.1h8.9c3.9,0,5.4,2.3,5.4,6.3c0,3.7-1.1,4.8-2.6,5.5
			c1.7,0.6,2.9,2.1,2.9,5.7C-352.1,10.1-353.9,12.4-357.8,12.4z M-358.4,1.2h-3.3v-2h3.3c2,0,2.4-1.1,2.4-4.2c0-3.4-1.1-4.6-2.7-4.6
			h-4.4v20h4.4c1.7,0,2.9-1.1,2.9-4.4C-355.7,2.5-356.4,1.2-358.4,1.2z"/>
		
			<linearGradient id="Path_1614_2_" gradientUnits="userSpaceOnUse" x1="3553.1873" y1="-5054.5469" x2="3553.1873" y2="-5053.5664" gradientTransform="matrix(14.715 0 0 -19.473 -52622.0938 -98414.7578)">
			<stop  offset="0" style="stop-color:#00939F"/>
			<stop  offset="1" style="stop-color:#006CB5"/>
		</linearGradient>
		<path id="Path_1614_1_" class="st2" d="M-333.3,10.3v-17h3.5v19.1h-9.3c-4.2,0-5.2-1.6-5.2-5.9V-6.7h3.5V6.7
			c0,3.1,0.5,3.7,2.9,3.7L-333.3,10.3z"/>
		
			<linearGradient id="Path_1615_2_" gradientUnits="userSpaceOnUse" x1="3503.6448" y1="-5054.5469" x2="3503.6448" y2="-5053.5664" gradientTransform="matrix(12.738 0 0 -19.473 -44944.6289 -98414.7578)">
			<stop  offset="0" style="stop-color:#00939F"/>
			<stop  offset="1" style="stop-color:#006CB5"/>
		</linearGradient>
		<path id="Path_1615_1_" class="st3" d="M-308.9,12.4h-12.5v-2.1l8.6-14.9h-8.5v-2.1h12.1v1.5l-8.5,15.6h8.7V12.4z"/>
		
			<linearGradient id="Path_1616_2_" gradientUnits="userSpaceOnUse" x1="3503.613" y1="-5054.5469" x2="3503.613" y2="-5053.5664" gradientTransform="matrix(12.738 0 0 -19.473 -44924.1289 -98414.7578)">
			<stop  offset="0" style="stop-color:#00939F"/>
			<stop  offset="1" style="stop-color:#006CB5"/>
		</linearGradient>
		<path id="Path_1616_1_" class="st4" d="M-288.8,12.4h-12.5v-2.1l8.6-14.9h-8.4v-2.1h12.1v1.5l-8.5,15.6h8.7V12.4z"/>
		<path id="Path_1617_1_" class="st5" d="M-269.9,12.4h-10.7v-24.1h3.6v22h7.1L-269.9,12.4z"/>
		<path id="Path_1618_1_" class="st5" d="M-257.1,4.5v-2h1.9c2.4,0,2.9-0.6,2.9-2.5v-1.9c0-2.1-0.5-2.7-2.9-2.7h-1.4
			c-2.4,0-2.9,0.6-2.9,3.7v7.6c0,3.1,0.5,3.7,2.9,3.7h6.5v2.1h-7.8c-4.2,0-5.2-1.6-5.2-5.9v-7.4c0-4.2,1.1-5.8,5.2-5.8h4
			c4.2,0,5.2,1.6,5.2,4.5v2.1c0,2.9-1.1,4.5-5.2,4.5H-257.1z"/>
		<path id="Path_1619_1_" class="st5" d="M-233.5,0.9v2h-1.5c-2.4,0-2.9,0.6-2.9,2.5v2.2c0,2.1,0.5,2.7,2.9,2.7h3.9V-0.9
			c0-3.1-0.5-3.7-2.9-3.7h-5v-2.1h6.2c4.1,0,5.2,1.6,5.2,5.8v13.3h-8.6c-4.2,0-5.2-1.6-5.2-4.5V5.5c0-2.9,1.1-4.5,5.2-4.5H-233.5z"
			/>
		<path id="Path_1620_1_" class="st5" d="M-213-4.6c-2.4,0-2.9,0.6-2.9,3.7v7.6c0,3.1,0.5,3.7,2.9,3.7h4.5v-22.7h3.5v24.8h-9.3
			c-4.2,0-5.2-1.6-5.2-5.9v-7.4c0-4.2,1.1-5.8,5.2-5.8h3.9v2.1H-213z"/>
	</g>
	<g id="Group_396_1_" transform="translate(13.47 -0.019)">
		
			<linearGradient id="Path_1621_2_" gradientUnits="userSpaceOnUse" x1="3747.7886" y1="-4834.8086" x2="3748.7688" y2="-4834.8086" gradientTransform="matrix(23.4305 0 0 -66.9801 -88177.9922 -323815.1875)">
			<stop  offset="0" style="stop-color:#FF8061"/>
			<stop  offset="0.685" style="stop-color:#C02B40"/>
			<stop  offset="1" style="stop-color:#FF273F"/>
		</linearGradient>
		<path id="Path_1621_1_" class="st6" d="M-346.2-9.1c-3.4-0.8-6.7-1.7-10-2.6c-3.2-1-6.7,0.6-8,3.7c-0.5,1-0.8,2.1-0.9,3.2
			c-0.1,0.6-0.1,1.1-0.1,1.7v47.7c0,1.6,0.3,3.1,0.9,4.6c1.4,3.4,4.5,5.1,8.1,4c1.2-0.4,2.5-0.6,3.7-1c0.3-33.2,7-52.8,10.3-60.5
			C-343.6-8.5-345-8.8-346.2-9.1z"/>
		
			<linearGradient id="Path_1622_2_" gradientUnits="userSpaceOnUse" x1="3841.7756" y1="-4839.8916" x2="3841.853" y2="-4839.4624" gradientTransform="matrix(43.9451 0 0 -63.106 -169157 -305397.7188)">
			<stop  offset="0" style="stop-color:#006F8D"/>
			<stop  offset="0.995" style="stop-color:#00B0C6"/>
		</linearGradient>
		<path id="Path_1622_1_" class="st7" d="M-310.1,4.2c-1.8-3.2-4.8-5.6-8.3-6.6c-7.3-1.9-14.6-3.6-21.9-5.2
			c-0.7-0.1-1.4-0.4-2.1-0.5c-3.3,7.7-9.9,27.3-10.2,60.6c8.8-2.3,17.7-4.2,26.6-6.3c1.5-0.4,3-0.7,4.4-1.1l7.5,8.8l-1.5-10.7
			c3.5-1.9,6.1-5.2,6.1-8V6.8C-309.4,5.9-309.6,5-310.1,4.2z"/>
	</g>
</g>
</svg>
